<svg width="390" height="65" viewBox="0 0 390 65" fill="none" xmlns="http://www.w3.org/2000/svg">
<path d="M34.1123 19.7058C33.8673 17.3872 32.8384 15.5765 31.031 14.2847C29.2236 12.9929 26.8773 12.347 23.992 12.347C21.9668 12.347 20.2247 12.6562 18.7766 13.28C17.3231 13.8983 16.218 14.7429 15.4504 15.8028C14.6828 16.8683 14.2854 18.0828 14.269 19.4464C14.269 20.5781 14.5249 21.5607 15.0421 22.3943C15.5593 23.2279 16.2615 23.929 17.1543 24.5087C18.0471 25.0883 19.0325 25.5686 20.1159 25.955C21.1992 26.347 22.2934 26.6727 23.3931 26.9377L28.4234 28.2129C30.4485 28.6932 32.4029 29.3391 34.2811 30.1506C36.1593 30.9677 37.8469 31.9945 39.3385 33.2311C40.8302 34.4732 42.017 35.9692 42.888 37.7248C43.759 39.4803 44.2 41.5339 44.2 43.8912C44.2 47.082 43.3943 49.8864 41.7883 52.3044C40.1824 54.7224 37.8632 56.6104 34.8309 57.9685C31.7986 59.321 28.1348 60 23.8341 60C19.6586 60 16.0383 59.3431 12.9679 58.0347C9.90296 56.7208 7.50761 54.8107 5.78732 52.2934C4.07246 49.776 3.14154 46.7121 3 43.0962H12.5651C12.7066 44.9897 13.2837 46.5686 14.2962 47.8273C15.3088 49.086 16.6317 50.0244 18.2649 50.6427C19.8981 51.261 21.7273 51.5702 23.7579 51.5702C25.8701 51.5702 27.7265 51.25 29.3271 50.5986C30.9276 49.9472 32.1797 49.0473 33.0889 47.888C33.998 46.7287 34.4607 45.3651 34.4771 43.8084C34.4607 42.3896 34.047 41.2192 33.2467 40.2863C32.441 39.3588 31.3196 38.5749 29.8769 37.9456C28.4343 37.3162 26.7521 36.7532 24.8303 36.2563L18.7222 34.6609C14.3017 33.5071 10.8121 31.7571 8.25344 29.4109C5.69477 27.0757 4.41543 23.9511 4.41543 20.0536C4.41543 16.8462 5.27558 14.0363 6.99588 11.6293C8.71617 9.2224 11.0625 7.34543 14.0349 6.00946C17.0019 4.66798 20.3663 4 24.1226 4C27.9334 4 31.2706 4.66798 34.145 6.00394C37.0194 7.33991 39.2787 9.19479 40.9227 11.5576C42.5668 13.9203 43.4106 16.6364 43.4651 19.7058H34.1123Z" fill="white"/>
<path d="M110.039 59.1775V4.74536H119.762V50.9133H143.406V59.1775H110.039Z" fill="white"/>
<path d="M160.728 59.1775H150.347L169.243 4.74536H181.247L200.17 59.1775H189.788L175.449 15.9078H175.03L160.728 59.1775ZM161.071 37.8353H189.38V45.7572H161.071V37.8353Z" fill="white"/>
<path d="M207.247 59.1775V4.74536H227.373C231.495 4.74536 234.962 5.47407 237.766 6.92596C240.57 8.37785 242.693 10.4149 244.135 13.0261C245.578 15.6428 246.297 18.6846 246.297 22.157C246.297 25.646 245.567 28.6712 244.108 31.2327C242.649 33.7943 240.504 35.7706 237.673 37.1618C234.843 38.5529 231.364 39.2485 227.243 39.2485H212.903V31.0561H225.931C228.342 31.0561 230.319 30.7138 231.854 30.0348C233.389 29.3502 234.532 28.351 235.273 27.0316C236.013 25.7122 236.389 24.0837 236.389 22.157C236.389 20.2249 236.013 18.5742 235.262 17.1996C234.51 15.825 233.367 14.7816 231.827 14.064C230.286 13.3463 228.304 12.9875 225.876 12.9875H216.965V59.1775H207.247ZM234.979 34.5119L248.267 59.1775H237.418L224.363 34.5119H234.979Z" fill="white"/>
<path d="M264.986 4.74536H255.263V59.1775H264.986V4.74536Z" fill="white"/>
<path d="M309.387 4.74536H319.11V40.3084C319.11 44.2059 318.206 47.6342 316.399 50.5932C314.591 53.5521 312.054 55.8597 308.783 57.5159C305.516 59.172 301.695 60.0001 297.329 60.0001C292.941 60.0001 289.114 59.172 285.847 57.5159C282.581 55.8597 280.044 53.5521 278.247 50.5932C276.445 47.6342 275.547 44.2059 275.547 40.3084V4.74536H285.27V39.4859C285.27 41.7548 285.765 43.7753 286.751 45.5474C287.736 47.3195 289.13 48.7051 290.932 49.7099C292.728 50.7091 294.862 51.2114 297.329 51.2114C299.795 51.2114 301.929 50.7091 303.736 49.7099C305.543 48.7107 306.937 47.3195 307.917 45.5474C308.897 43.7753 309.387 41.7548 309.387 39.4859V4.74536Z" fill="white"/>
<path d="M329.698 4.74536H341.599L357.533 44.1838H358.165L374.099 4.74536H386V59.1775H376.669V21.7816H376.168L361.333 59.0174H354.365L339.53 21.6988H339.029V59.1775H329.698V4.74536Z" fill="white"/>
<path d="M103.224 31.884C103.224 47.1261 91.0345 59.4865 76.0037 59.4865C60.9729 59.4865 48.7838 47.1261 48.7838 31.884C48.7838 16.6419 60.9729 4.28149 76.0037 4.28149C91.0345 4.28149 103.224 16.6419 103.224 31.884Z" fill="#436393"/>
<path d="M103.224 31.884C103.224 47.1261 91.0345 59.4865 76.0037 59.4865C60.9729 59.4865 48.7838 47.1261 48.7838 31.884C48.7838 16.6419 60.9729 4.28149 76.0037 4.28149C91.0345 4.28149 103.224 16.6419 103.224 31.884Z" fill="white"/>
<path d="M76.0037 4.28149C69.8738 4.28149 64.2229 6.33512 59.6718 9.802C56.253 14.4171 54.2278 20.1474 54.2278 26.3635C54.2278 41.6056 66.4169 53.966 81.4477 53.966C87.5776 53.966 93.2284 51.9124 97.7796 48.4455C101.198 43.8304 103.224 38.1001 103.224 31.884C103.224 16.6419 91.0345 4.28149 76.0037 4.28149Z" fill="#FFC50D"/>
</svg>
